<svg width="22" height="19" viewBox="0 0 22 19" fill="none" xmlns="http://www.w3.org/2000/svg">
<path d="M9.83162 9.51221L0.484536 3.02932C-0.161512 2.58124 -0.161512 1.85668 0.484536 1.41337L2.0378 0.336062C2.68385 -0.112021 3.72852 -0.112021 4.3677 0.336062L10.9931 4.93129L17.6186 0.336062C18.2646 -0.112021 19.3093 -0.112021 19.9485 0.336062L21.5155 1.4086C22.1615 1.85668 22.1615 2.58124 21.5155 3.02455L12.1684 9.50745C11.5223 9.9603 10.4777 9.9603 9.83162 9.51221ZM12.1684 18.6645L21.5155 12.1816C22.1615 11.7336 22.1615 11.009 21.5155 10.5657L19.9622 9.48838C19.3161 9.0403 18.2715 9.0403 17.6323 9.48838L11 14.0788L4.37457 9.48361C3.72852 9.03553 2.68385 9.03553 2.04467 9.48361L0.484536 10.5609C-0.161512 11.009 -0.161512 11.7336 0.484536 12.1769L9.83162 18.6598C10.4777 19.1126 11.5223 19.1126 12.1684 18.6645Z" fill="#1CCACD"/>
</svg>
