<svg width="200" height="31" viewBox="0 0 200 31" fill="none" xmlns="http://www.w3.org/2000/svg">
<path id="letter" d="M37.1853 17.2109V23H33.072V5.9375H39.8806C41.1853 5.9375 42.3376 6.17969 43.3376 6.66406C44.3455 7.14063 45.1228 7.82422 45.6697 8.71484C46.2244 9.59766 46.5017 10.6016 46.5017 11.7266C46.5017 13.3906 45.9041 14.7227 44.7087 15.7227C43.5212 16.7148 41.8884 17.2109 39.8103 17.2109H37.1853ZM37.1853 14.0352H39.8806C40.6775 14.0352 41.283 13.8359 41.697 13.4375C42.1189 13.0391 42.3298 12.4766 42.3298 11.75C42.3298 10.9531 42.115 10.3164 41.6853 9.83984C41.2556 9.36328 40.6697 9.12109 39.9275 9.11328H37.1853V14.0352ZM59.2869 15.7695H52.8181V19.8359H60.4587V23H48.7048V5.9375H60.4822V9.11328H52.8181V12.7109H59.2869V15.7695ZM75.7634 9.11328H70.6423V23H66.5291V9.11328H61.5017V5.9375H75.7634V9.11328ZM91.0916 9.11328H85.9705V23H81.8572V9.11328H76.8298V5.9375H91.0916V9.11328ZM99.2712 13.3438L102.412 5.9375H106.853L101.357 16.8711V23H97.1853V16.8711L91.7009 5.9375H96.1189L99.2712 13.3438ZM121.549 17.2227C121.494 18.4102 121.174 19.4609 120.588 20.375C120.002 21.2812 119.177 21.9844 118.115 22.4844C117.06 22.9844 115.853 23.2344 114.494 23.2344C112.252 23.2344 110.486 22.5039 109.197 21.043C107.908 19.582 107.263 17.5195 107.263 14.8555V14.0117C107.263 12.3398 107.552 10.8789 108.131 9.62891C108.717 8.37109 109.556 7.40234 110.65 6.72266C111.744 6.03516 113.01 5.69141 114.447 5.69141C116.517 5.69141 118.181 6.23828 119.439 7.33203C120.697 8.41797 121.412 9.91797 121.584 11.832H117.482C117.451 10.793 117.189 10.0469 116.697 9.59375C116.205 9.14062 115.455 8.91406 114.447 8.91406C113.424 8.91406 112.674 9.29688 112.197 10.0625C111.72 10.8281 111.47 12.0508 111.447 13.7305V14.9375C111.447 16.7578 111.674 18.0586 112.127 18.8398C112.588 19.6211 113.377 20.0117 114.494 20.0117C115.439 20.0117 116.162 19.7891 116.662 19.3438C117.162 18.8984 117.427 18.1914 117.459 17.2227H121.549ZM133.185 19.8125H127.549L126.564 23H122.17L128.427 5.9375H132.295L138.599 23H134.181L133.185 19.8125ZM128.533 16.6367H132.201L130.361 10.7188L128.533 16.6367ZM148.654 18.4648C148.654 17.8633 148.439 17.3945 148.01 17.0586C147.588 16.7227 146.842 16.375 145.771 16.0156C144.701 15.6562 143.826 15.3086 143.146 14.9727C140.935 13.8867 139.83 12.3945 139.83 10.4961C139.83 9.55078 140.103 8.71875 140.65 8C141.205 7.27344 141.986 6.71094 142.994 6.3125C144.002 5.90625 145.135 5.70312 146.392 5.70312C147.619 5.70312 148.717 5.92188 149.685 6.35938C150.662 6.79687 151.42 7.42188 151.959 8.23438C152.498 9.03906 152.767 9.96094 152.767 11H148.666C148.666 10.3047 148.451 9.76562 148.021 9.38281C147.599 9 147.025 8.80859 146.299 8.80859C145.564 8.80859 144.982 8.97266 144.552 9.30078C144.131 9.62109 143.92 10.0312 143.92 10.5312C143.92 10.9688 144.154 11.3672 144.623 11.7266C145.092 12.0781 145.916 12.4453 147.095 12.8281C148.275 13.2031 149.244 13.6094 150.002 14.0469C151.845 15.1094 152.767 16.5742 152.767 18.4414C152.767 19.9336 152.205 21.1055 151.08 21.957C149.955 22.8086 148.412 23.2344 146.451 23.2344C145.068 23.2344 143.814 22.9883 142.689 22.4961C141.572 21.9961 140.728 21.3164 140.158 20.457C139.595 19.5898 139.314 18.5938 139.314 17.4688H143.439C143.439 18.3828 143.674 19.0586 144.142 19.4961C144.619 19.9258 145.388 20.1406 146.451 20.1406C147.131 20.1406 147.666 19.9961 148.056 19.707C148.455 19.4102 148.654 18.9961 148.654 18.4648ZM169.138 23H165.049V15.875H158.99V23H154.877V5.9375H158.99V12.7109H165.049V5.9375H169.138V23Z" fill="#F2F2F2"/>
<path id="icon" d="M3.4581 14.4853L14.8637 3.60452L25.3181 15.5147L13.9125 26.3955L3.4581 14.4853Z" stroke="#E5E5E5" stroke-width="5"/>
</svg>
