<svg width="215" height="26" viewBox="0 0 215 26" fill="none" xmlns="http://www.w3.org/2000/svg">
<path fill-rule="evenodd" clip-rule="evenodd" d="M0 15.8644L5.9125 17.6271C12.0042 19.3898 23.8292 22.9153 35.8333 24.678C47.8375 26.4407 59.6625 26.4407 71.6667 24.678C83.6708 22.9153 95.4958 19.3898 107.5 20.2712C119.504 21.1525 131.329 26.4407 143.333 25.5593C155.338 24.678 167.162 17.6271 179.167 14.9831C191.171 12.339 202.996 14.1017 209.087 14.9831L215 15.8644V0H209.087C202.996 0 191.171 0 179.167 0C167.162 0 155.338 0 143.333 0C131.329 0 119.504 0 107.5 0C95.4958 0 83.6708 0 71.6667 0C59.6625 0 47.8375 0 35.8333 0C23.8292 0 12.0042 0 5.9125 0H0V15.8644Z" fill="#F8F8F8"/>
</svg>
