<svg width="1440" height="177" viewBox="0 0 1440 177" fill="none" xmlns="http://www.w3.org/2000/svg">
<path fill-rule="evenodd" clip-rule="evenodd" d="M0 69L39.6 57C80.4 45 159.6 21 240 9C320.4 -3 399.6 -3 480 9C560.4 21 639.6 45 720 39C800.4 33 879.6 -3 960 3C1040.4 9 1119.6 57 1200 75C1280.4 93 1359.6 81 1400.4 75L1440 69V177H1400.4C1359.6 177 1280.4 177 1200 177C1119.6 177 1040.4 177 960 177C879.6 177 800.4 177 720 177C639.6 177 560.4 177 480 177C399.6 177 320.4 177 240 177C159.6 177 80.4 177 39.6 177H0V69Z" fill="#F8F8F8"/>
</svg>
