<svg width="1439" height="119" viewBox="0 0 1439 119" fill="none" xmlns="http://www.w3.org/2000/svg">
<path fill-rule="evenodd" clip-rule="evenodd" d="M-1 71.4L47 61.4833C95 51.5667 191 31.7333 287 33.7167C383 35.7 479 59.5 575 63.4667C671 67.4333 767 51.5667 863 55.5333C959 59.5 1055 83.3 1151 77.35C1247 71.4 1343 35.7 1391 17.85L1439 0V119H1391C1343 119 1247 119 1151 119C1055 119 959 119 863 119C767 119 671 119 575 119C479 119 383 119 287 119C191 119 95 119 47 119H-1V71.4Z" fill="#F8F8F8"/>
</svg>
